<svg xmlns="http://www.w3.org/2000/svg" xml:space="preserve" id="Laag_1" x="0" y="0" viewBox="0 0 692.5 692.5">
  <style>
    .st0{fill:#311b07}.st1{fill:none}.st2{fill:#0092ae}.st3{fill:#4cb3c6}.st6{fill:#e63312}.st7{fill:#fff}
  </style>
  <path d="M342.1 489.1c-18.1-11.9-34.4-26.4-48.3-43-59.1 36.7-115.7 123.6-120.3 246 73.6 4.2 131.5-31.2 171-56.6-13.3-57.7-12.4-105.8-2.4-146.4" class="st0"/>
  <path d="M173.5 691.7q17.7 1.2 35.4-.9l124-157.8zm16.3-97.1c-2.9 10.1-5.8 20.3-7.9 31.2l135.7-135.1zm146.5-43.4-74.1 127.5h.4zm-42.9-105.1c-22.9 14.3-45.4 36.3-64.5 64.6l70.8-57.4c-2.2-2.6-4.2-4.7-6.3-7.2" class="st1"/>
  <path d="M262.2 678.6c32.9-11.8 60.3-29.1 82.4-43-4.1-16.8-6.8-33.9-8.3-51.1z" class="st1"/>
  <path d="m330 480.7-12.5 10.1-136 135c-4.4 21.7-7.2 44.1-8 66.3l156.9-211z" class="st2"/>
  <path d="M335.4 530.1c1.1-13.8 3.3-27.5 6.6-40.9-3.7-2.5-7.9-5.9-11.6-8.4L173.5 692.1 333.3 533z" class="st3"/>
  <path d="m299.6 453.3-70.8 57.4c-15.8 23.2-29.1 51.1-39.1 83.1l119.4-130.4c-3.2-3.4-6.1-6.8-9.5-10.1" class="st2"/>
  <path d="M330 480.7c-6.8-5-14.8-11.4-20.8-17.3L189.8 593.7l-.2.7 127.9-103.2z" class="st3"/>
  <path d="M309.2 463.4 189.8 593.8v.4z" class="st3"/>
  <path d="m335.4 530.9-2.1 2.1-124.4 157.8c17.9-2 35.5-6.1 52.4-12.2l73.2-127.5c.1-7.1.5-13.8.9-20.2" class="st2"/>
  <path d="m334.6 551.2-72.8 127.4h.4l74.1-94.1c-1.2-11.1-1.8-22.2-1.7-33.3" class="st3"/>
  <title>Tekengebied 1</title>
  <path d="M429.1 320.7C311.3 219 169 162.9 5.4 158.3h-.8L0 162.1c164.8 5.5 305.4 75.1 419.9 179.3z" class="st0"/>
  <path d="M370.9 238.1c-2.8.4-5.5.5-8.3.4-27.5-.1-51.8-18-59.9-44.3-27.1-13.5-46.6-19.4-46.6-19.4s-95.7 278.9 175.6 354.9c55.7-147.2 1.6-238.4-60.8-291.6" style="fill:#d9eff3"/>
  <path d="M613.8 178.1C575.6 245.5 526.4 306 468.1 357c81.6-49.8 169.8-98.3 224.3-177.2-16.6-1.3-33.3-1.7-50.3-1.7-9.6-.4-18.7-.4-28.3 0" class="st0"/>
  <path d="M450.7 368.4c-4.7-23.6-13.3-46.3-25.4-67.1 12.2 20.8 20.7 43.5 25.4 67.1" style="opacity:.6;fill:#ea5444"/>
  <path d="M370 422c-12.9 20.7-22.4 43.3-27.9 67.1-10 40.1-10.8 88.6 2.9 146 43.7-27.9 71.2-67.1 87.4-106.3 5.4-13.1 8.7-26.4 12-38.7-33.3-18.9-57.4-42.8-74.4-68.1" class="st0"/>
  <path d="m162.7 180.2-14.1 5.1c19.6 7.6 34.1 26.2 38.3 47.3 2.8 18.6 13.8 35.1 30 44.7 14.1 10.1 23.7 26.6 25.8 45.1l48.7-53.6c2-1.8 3.8-3.8 5.4-5.9l.8-.9a64.8 64.8 0 0 0 12.5-29.1c-49.6-49.3-107.9-24.4-147.4-52.7" class="st3"/>
  <path d="M309.6 233c.5-3.1.8-6.2.8-9.3 0-34.6-27.9-62.9-62-62.9-12.6.1-24.9 3.9-35.4 11-14.6 10.3-33.1 13.6-50.3 8.9 39.5 27.8 89.5 8 146.9 52.3" class="st6"/>
  <path d="M309.6 233c-62-48.1-107.8-21.1-150.6-51.5l-11.7 3.4s17.1 6.3 37.9 24.9C206.4 228.7 191 330 309.6 233" class="st2"/>
  <path d="M309.6 233c-54.9-62.5-107.4-24.5-146.9-52.7l-15.8 4.6s22.9 5.9 42 23.2c19.2 16.9 6.3 110.5 120.7 24.9" class="st0"/>
  <ellipse cx="228" cy="192.9" class="st7" rx="13.7" ry="13.9"/>
  <ellipse cx="228" cy="192.9" class="st0" rx="8.3" ry="8.4"/>
  <ellipse cx="233.1" cy="197.9" class="st7" rx="3.3" ry="3.4"/>
  <path d="m499.8 125.8-20 15.2-13.3-17.7c-16.2 13.5-31.6 28.3-46.6 43l64.1-27zm-89.5 51.1c-7.5 8-14.6 16-21.6 24.1-.4.9-1.3 1.3-1.7 2.1l34.5-7.6zm219.3-28.3c6.2-12.2 11.7-24.5 17.1-37.1L479.8 182zm29.6-83.2 6.2-3.8c5-15.2 9.6-30.4 13.7-46l-181 118.2zm-54.5 128.7-217.6 49 242.2-93.7L379.6 246c6.6 6.3 13.3 13.1 19.6 20.3L603 196.7c.5-.9 1.1-1.7 1.7-2.6m-241 37.6c.8.9 1.8 1.7 2.9 2.1L365 230c-.3.6-.8 1.2-1.3 1.7m83.7 122.8c1.4 4.7 2.5 9.5 3.3 14.3.4.9.4 1.7.8 2.5 3.3-2.5 6.6-5.5 9.6-8 2.5-2.1 4.6-3.8 7.1-5.9 9.2-8 18.3-16.4 27.5-25.3zm117.7-101.7-140.2 48.1c2.9 4.8 5.5 9.7 7.9 14.8l131.5-62c.4-.5.4-.5.8-.9" class="st3"/>
  <path d="m499.8 125.8 104-92.4c-49.3 24.4-95.4 54.8-137.3 90.3l13.3 17.7z" class="st0"/>
  <path d="M461.5 186.1 659.2 65l-161 67.9-27.9 19 13.7-12.2-63.7 27c-3.3 3.4-6.6 6.7-9.6 10.1l10.8 18.6z" class="st0"/>
  <path d="M665 62.9c0-.4.4-.9.4-1.3l-6.2 3.8z" class="st2"/>
  <path d="M665.8 60.4 461.5 185.1l3.7.1 4.9-3-4.9 3 14.6-3.4 166.9-70.5c6.6-15.6 12.5-31.7 18.3-48.1l.1-.5zm-23.7-44.8c-12.9 5.5-25.8 11.4-38.3 17.3L486.4 137.2l-2.4 2.1 14.1-4.9 181-118.2c1.3-6.1 2.9-11.1 4.2-16.2-14.1 4.6-27.9 10.1-41.2 15.6" class="st2"/>
  <path d="m470.3 152 27.8-18.6-14.1 5.9z" class="st2"/>
  <path d="m629.6 148.6-149.8 33.8-30 12.7-20.8 12.5-7.5-12.7-34.5 8c-7.5 8.9-15 18.2-22.1 27l1.7 3.8c4.6 3.8 8.7 7.6 13.3 11.4z" class="st0"/>
  <path d="m461.5 186.1-39.9 9.3 7 12.3 21.2-12.7-7.9 3.4z" class="st0"/>
  <path d="m449.8 195 30-13.1-14.6 3.4zm11.7-8.9-19.6 12.3 7.9-3.4 15.4-9.7z" class="st0"/>
  <path d="M604.7 194.1c3.3-5.5 6.2-10.6 9.6-16 5.4-9.7 10.4-19.4 15.4-29.1L387 243.1z" class="st2"/>
  <path d="m603.4 195.8-203.9 70c7.2 8 13.8 16.6 19.6 25.7z" class="st0"/>
  <path d="m603.4 196.3-184.3 95.4c2.1 3 3.7 5.9 5.8 9.3l140.2-48.1c13.8-18.2 26.2-37.2 38.3-56.6" class="st2"/>
  <path d="m564.3 253.7-131.5 62c3.4 6.5 6.3 13.3 8.7 20.3z" class="st0"/>
  <path d="M563.9 254.1 441.6 336c2.1 5.9 4.2 12.2 5.8 18.6l48.3-22.8c24.6-24.3 47.4-50.2 68.2-77.7M335.4 530.9v-.9l-2.1 3z" class="st2"/>
  <path d="M384.9 441.5c-5.4-6.3-10.4-13.1-15-19.4-12.9 20.7-22.4 43.3-27.9 67.1-5.4 21.9-7.9 46.4-7.1 73.9zm-39.1 193.2c8.1-5.3 15.9-11.1 23.3-17.3L442.8 490c-10.3-6.2-20.2-13.1-29.5-20.7l-66.6 161.2z" class="st1"/>
  <path d="M413.2 469.3c-7.5-6.3-14.6-12.7-21.2-19.4l-45.4 180.6z" class="st3"/>
  <path d="M345.8 633.5 392 449c-2.5-2.5-4.6-5.1-7.1-7.6L334.6 563c.9 24.5 4.2 48.8 10 72.6.5-.4.4-.3.9-.7" class="st2"/>
  <path d="M346.6 630.1 392 449.5l-.4-.4-46.2 184.4zm85.8-101.3c5.4-13.1 8.7-25.8 12-38-.4-.5-1-.8-1.7-.9l-73.6 127.5c30-25.7 51.1-57.6 63.3-88.6" class="st2"/>
  <path id="SVGID" d="M466.1 235.9c21.2-35.4 35.4-81.5 37-140.9h-.8c-37.9 27.9-72.7 59.8-104 95-3.3 3.8-6.6 7.2-9.6 11-8.7 10.1-17.1 20.3-25 30.8-9.6 6.3-22.5 4.2-31.6-1.7-5.4 31.7-5.8 59.1 3.3 105.9 10.8 56.1 40.8 114.8 109 154.9 12.5-46.8 13.3-87.4 6.6-122.4-4.7-23.6-13.3-46.3-25.4-67.1-2.1-3.4-4.2-6.7-6.2-10.1-.8-.9-1.3-2.1-2.1-3q1.2 1.35 2.1 3c18.5-15.9 34.2-34.6 46.7-55.4" style="fill:#e8472a"/>
  <path id="SVGID-2" d="M456.5 247.3c17.1-28.3 28.3-65.4 30-113.5h-.4c-30.8 22.3-59.1 47.7-84.5 76-2.5 3-5.4 5.9-7.9 8.9-7.1 8-13.7 16.5-20 24.9-7.9 5.1-19.2 2.1-29.5-1.7-4.6 25.7-.8 47.7 6.6 85.2 8.7 45.1 32.9 92.4 87.8 124.5 10-37.5 10.8-70.5 5.4-98.3-3.8-19-10.7-37.2-20.4-54-1.7-3-3.3-5.5-5-8.4-.3-.9-.9-1.6-1.7-2.1.3.9.9 1.6 1.7 2.1 15.1-12.3 27.9-27 37.9-43.6" class="st6"/>
</svg>
